<svg id="Layer_1" data-name="Layer 1" xmlns="http://www.w3.org/2000/svg" viewBox="0 0 256.19 254.73"><defs><style>.cls-1{fill:#fff;}</style></defs><title>gear</title><path class="cls-1" d="M256.18,151.81V105H219.57a93.17,93.17,0,0,0-9.94-24l25.6-25.59L202.1,22.25,176.59,47.77a93.09,93.09,0,0,0-24.35-10.15V1H105.4V37.62A93.52,93.52,0,0,0,80.73,48L54.05,21.26,20.92,54.38l26.9,26.91A93,93,0,0,0,38.07,105H0v46.85H38.09a93,93,0,0,0,10.13,24.31L22,202.38,55.11,235.5l26.32-26.32a93.22,93.22,0,0,0,24,9.93v36.62h46.84V219.11a93.31,93.31,0,0,0,23.69-9.77l26.16,26.17,33.13-33.12-26-26a93.45,93.45,0,0,0,10.3-24.62Zm-127.36,23.4a46.85,46.85,0,1,1,46.85-46.84A46.85,46.85,0,0,1,128.82,175.21Z" transform="translate(0 -1)"/></svg>